<svg xmlns="http://www.w3.org/2000/svg" viewBox="0 0 64 64">
  <rect width="64" height="64" rx="10" fill="#1e2a8c"/>
  <g fill="#ffffff">
    <path d="M38 20 C 35 18 32 19 30 22 C 29 24 29 26 30 28 C 29 30 29 32 31 33 C 30 34 31 36 33 36 C 34 37 36 36 37 35 L 38 33 L 38 20 Z" opacity="0.95"/>
    <path d="M22 18 C 18 22 15 28 16 35 C 17 40 20 44 25 45 L 28 44 C 24 40 22 34 24 28 C 26 22 30 19 34 18 C 30 16 25 16 22 18 Z"/>
    <path d="M20 14 C 15 18 12 26 14 34 C 15 38 17 42 21 44 L 19 38 C 17 32 18 25 22 20 C 24 17 27 15 30 15 C 26 13 22 13 20 14 Z" opacity="0.85"/>
    <path d="M18 12 C 13 16 10 24 12 32 C 13 36 15 40 18 42 L 16 36 C 14 28 16 20 21 15 C 19 13 18 12 18 12 Z" opacity="0.65"/>
  </g>
  <text x="32" y="58" font-family="Georgia, serif" font-size="9" font-weight="400" letter-spacing="2" text-anchor="middle" fill="#ffffff">BV</text>
</svg>
